<svg width="27" height="27" viewBox="0 0 27 27" fill="none" xmlns="http://www.w3.org/2000/svg">
<path d="M6.26776 6L10.2678 2L14.2678 6" stroke="white" stroke-linecap="round" stroke-linejoin="round"/>
<path d="M12.7678 4.5L15.2678 2.00001L19.2677 6" stroke="white" stroke-linecap="round" stroke-linejoin="round"/>
<path d="M25 19V22C25 23.6569 23.6569 25 22 25H4C2.34315 25 1 23.6569 1 22V9C1 7.34315 2.34315 6 4 6H22C23.6569 6 25 7.34315 25 9V12" stroke="#0094FF"/>
<path d="M20.5 12.5H26.4924C26.4943 12.5 26.4949 12.5003 26.4952 12.5004L26.4952 12.5004C26.4957 12.5006 26.4967 12.5012 26.4978 12.5022C26.4988 12.5033 26.4994 12.5043 26.4996 12.5048C26.4997 12.505 26.5 12.5056 26.5 12.5076V18.4924C26.5 18.4944 26.4997 18.495 26.4996 18.4952C26.4994 18.4957 26.4988 18.4967 26.4978 18.4978C26.4967 18.4988 26.4957 18.4994 26.4952 18.4996C26.4951 18.4996 26.495 18.4997 26.4947 18.4998C26.4943 18.4999 26.4936 18.5 26.4924 18.5H20.5C18.8431 18.5 17.5 17.1569 17.5 15.5C17.5 13.8431 18.8431 12.5 20.5 12.5Z" stroke="#0094FF" stroke-linejoin="round"/>
<circle cx="20.5" cy="15.5" r="1" stroke="#0094FF"/>
</svg>
