<svg width="27" height="27" viewBox="0 0 27 27" fill="none" xmlns="http://www.w3.org/2000/svg">
<path d="M0.450012 8.09998H26.55" stroke="white"/>
<path d="M3 5H24C25.3807 5 26.5 6.11929 26.5 7.5V19.5C26.5 20.8807 25.3807 22 24 22H3C1.61929 22 0.5 20.8807 0.5 19.5V7.5C0.5 6.11929 1.61929 5 3 5Z" stroke="#0094FF"/>
<path d="M0.450012 11.25H26.55" stroke="#0094FF"/>
<path d="M8.50001 16.65C8.50001 18.1136 7.31357 19.3 5.85001 19.3C4.38646 19.3 3.20001 18.1136 3.20001 16.65C3.20001 15.1864 4.38646 14 5.85001 14C7.31357 14 8.50001 15.1864 8.50001 16.65Z" stroke="white"/>
<path d="M11.2 16.65C11.2 18.1136 10.0135 19.3 8.54999 19.3C7.08644 19.3 5.89999 18.1136 5.89999 16.65C5.89999 15.1864 7.08644 14 8.54999 14C10.0135 14 11.2 15.1864 11.2 16.65Z" stroke="white"/>
</svg>
