<svg width="29" height="30" viewBox="0 0 29 30" fill="none" xmlns="http://www.w3.org/2000/svg">
<g clip-path="url(#clip0)">
<path d="M9.3283 2.60388C6.10521 2.60388 3.49219 5.22293 3.49219 8.45369C3.49219 11.6842 6.10521 14.3033 9.3283 14.3033C12.5516 14.3033 15.1646 11.6842 15.1646 8.45369C15.1604 5.22459 12.55 2.60814 9.3283 2.60388ZM9.3283 13.0921C6.77239 13.0921 4.70052 11.0155 4.70052 8.45369C4.70052 5.89189 6.77239 3.815 9.3283 3.815C11.8842 3.815 13.9563 5.89189 13.9563 8.45369C13.9539 11.0145 11.8833 13.0898 9.3283 13.0921Z" fill="white"/>
<path d="M26.4383 6.62472C26.1582 6.62354 25.8806 6.67913 25.6227 6.78841C25.1561 5.98605 24.4679 5.33602 23.641 4.91709C23.6119 4.90053 23.5815 4.88634 23.5503 4.87475C22.9235 4.57717 22.2382 4.42413 21.5446 4.42673C18.9471 4.43028 16.8396 6.5346 16.8259 9.1378V9.1501C16.8252 11.4366 18.4574 13.3959 20.702 13.8037C22.9469 14.2113 25.1611 12.9507 25.9609 10.8092C26.1195 10.8457 26.2816 10.8639 26.4442 10.8636C27.6122 10.862 28.5574 9.91178 28.5557 8.74134C28.5541 7.57067 27.606 6.62307 26.4383 6.62472ZM21.5384 5.63785C21.8778 5.63927 22.2153 5.68823 22.5414 5.78309C22.2816 6.3825 21.9795 6.89131 21.6229 7.30314C21.605 7.32112 21.5927 7.33933 21.5748 7.35754C21.031 7.98132 20.3723 8.39315 19.6171 8.58073C19.1097 8.70775 18.5823 8.73448 18.0645 8.6595C18.3132 6.9275 19.7925 5.64069 21.5384 5.63785ZM21.5384 12.6683C19.885 12.6654 18.4565 11.5087 18.1067 9.88883C18.2814 9.90681 18.4569 9.91485 18.6323 9.91296C19.0392 9.91343 19.4446 9.86683 19.8406 9.77363C20.6263 9.58865 21.3529 9.20971 21.9552 8.67156C22.1364 8.90764 22.3387 9.12644 22.5594 9.32561C23.2483 9.9553 24.0155 10.3007 24.825 10.3551C24.327 11.7445 23.0115 12.6704 21.5384 12.6683ZM25.0487 9.15601C23.9128 9.14395 23.1395 8.25973 22.7951 7.76322C23.1227 7.31473 23.4002 6.83123 23.6228 6.32194C24.1356 6.70278 24.5364 7.21538 24.7827 7.80556C24.796 7.86541 24.8184 7.92265 24.8493 7.97517C24.981 8.35483 25.0482 8.75412 25.0487 9.15601ZM26.4383 9.65252C26.3689 9.65394 26.2998 9.64566 26.2327 9.62839C26.25 9.46943 26.258 9.30977 26.257 9.1501C26.2563 8.72857 26.1992 8.30894 26.0878 7.90255C26.1988 7.85618 26.3179 7.83348 26.4383 7.83584C26.9386 7.83584 27.3445 8.2427 27.3445 8.74418C27.3445 9.2459 26.9386 9.65252 26.4383 9.65252Z" fill="white"/>
<path d="M21.5385 15.6902C19.1703 15.6902 17.0134 16.7802 15.6297 18.6392C13.9201 17.0411 11.6661 16.1573 9.32824 16.1685C6.80891 16.1685 4.4647 17.1494 2.72489 18.9299C0.966667 20.7343 0 23.1991 0 25.8695C0.00094401 26.2035 0.270931 26.4741 0.604167 26.475H18.0525C18.3858 26.4741 18.6558 26.2035 18.6567 25.8695C18.6567 25.2585 18.6041 24.6487 18.4995 24.0469H28.3958C28.7291 24.0459 28.9991 23.7753 29 23.4413C29 21.3096 28.2266 19.3415 26.8189 17.9004C25.4307 16.4762 23.525 15.6786 21.5385 15.6902ZM1.22651 25.2639C1.35938 23.1445 2.18704 21.2187 3.58866 19.7777C5.10615 18.243 7.17259 17.3796 9.32824 17.3796C11.4841 17.3796 13.5503 18.243 15.0678 19.7777C16.4697 21.2187 17.2973 23.1445 17.4302 25.2639H1.22651ZM18.2156 22.8358C17.8555 21.6332 17.2622 20.5136 16.4697 19.5414C17.5267 18.035 19.196 17.0758 21.0274 16.9228C22.8585 16.7695 24.6632 17.438 25.9551 18.7482C27.0062 19.8259 27.6345 21.2613 27.7676 22.8358H18.2156Z" fill="#0094FF"/>
</g>
<defs>
<clipPath id="clip0">
<rect width="29" height="29.0669" fill="white"/>
</clipPath>
</defs>
</svg>
