<svg width="29" height="29" viewBox="0 0 29 29" fill="none" xmlns="http://www.w3.org/2000/svg">
<path d="M20.2487 18.1954C20.3387 17.9786 20.2891 17.7292 20.123 17.5631L17.4795 14.9196V9.57091C17.4795 9.25055 17.2198 8.99091 16.8995 8.99091H14.8735C14.5532 8.99091 14.2936 9.25055 14.2936 9.57091V11.7337L10.5566 7.99653C10.3301 7.7702 9.96282 7.7702 9.73626 7.99653L0.169921 17.5633C-0.0566404 17.7899 -0.0566404 18.1571 0.169921 18.3835C0.278671 18.4922 0.426163 18.5534 0.579998 18.5534H2.80189V25.8301C2.80189 26.1505 3.06153 26.4101 3.38189 26.4101H16.911C17.2314 26.4101 17.491 26.1505 17.491 25.8301V18.5534H19.7129C19.9476 18.5534 20.159 18.412 20.2487 18.1954ZM15.4535 12.233H16.3195V13.6819L15.4535 12.816V12.233ZM16.3195 10.1509V11.073H15.4535V10.1509H16.3195ZM11.8172 25.2499H8.47545V19.6436H11.8172V25.2499ZM16.911 17.3932C16.5907 17.3932 16.331 17.6528 16.331 17.9732V25.2499H12.9772V19.0636C12.9772 18.7433 12.7176 18.4836 12.3972 18.4836H7.89545C7.57509 18.4836 7.31545 18.7433 7.31545 19.0636V25.2501H3.96188V17.9734C3.96188 17.653 3.70224 17.3934 3.38189 17.3934H1.98015L10.1466 9.22699L18.313 17.3934L16.911 17.3932Z" fill="#0094FF"/>
<path d="M25.638 24.2959L25.6335 24.2789C25.3396 23.0826 24.2947 22.2122 23.0869 22.1614C23.0473 22.1601 23.0067 22.1587 22.9657 22.1587C22.0037 22.1576 21.1029 22.6304 20.5576 23.4227C19.3593 23.5588 18.4535 24.5718 18.4521 25.7778H19.6121C19.6128 25.1101 20.1541 24.5689 20.822 24.568C20.8351 24.568 20.8485 24.5684 20.8621 24.5691C21.0871 24.5804 21.2985 24.4601 21.4038 24.2607C21.709 23.681 22.3105 23.318 22.9657 23.3187C22.9929 23.3187 23.0199 23.3198 23.0421 23.3205C23.7234 23.3495 24.3181 23.8425 24.4993 24.5254C24.5193 25.0437 24.4968 25.7517 24.4966 25.759L25.6559 25.7968C25.6571 25.7638 25.682 24.9814 25.6557 24.4137C25.6539 24.3738 25.648 24.3344 25.638 24.2959Z" fill="#0094FF"/>
<path d="M25.532 3.01606C25.4769 2.746 25.2393 2.55206 24.9635 2.55206C24.688 2.55206 24.4504 2.746 24.3953 3.01606L20.9384 19.9781C20.8743 20.2921 21.0769 20.5984 21.3907 20.6625C21.429 20.6702 21.4679 20.6741 21.5069 20.6741H24.4961V25.254H0.844238V26.414H27.3098V25.254H25.6561V20.6738H28.42C28.7403 20.6741 29 20.4144 29 20.0941C29 20.0551 28.9961 20.0161 28.9884 19.9778L25.532 3.01606ZM23.1461 14.9559L23.3683 13.865H26.5588L26.781 14.9559H23.1461ZM27.0176 16.1159L27.2398 17.207H22.6873L22.9095 16.1161L27.0176 16.1159ZM26.3225 12.705H23.6046L23.8271 11.6141H26.1L26.3225 12.705ZM24.9638 6.03658L25.8639 10.4541H24.0634L24.9638 6.03658ZM22.2172 19.5138L22.4508 18.367H27.4761L27.7099 19.5141L22.2172 19.5138Z" fill="white"/>
</svg>
