<svg width="29" height="30" viewBox="0 0 29 30" fill="none" xmlns="http://www.w3.org/2000/svg">
<g clip-path="url(#clip0)">
<path d="M21.1322 -1.98607e-05C20.339 -0.004216 19.5776 0.312469 19.0203 0.878454L14.5757 5.32685L11.2913 2.03461C10.1223 0.868581 8.23221 0.870802 7.06615 2.0398C5.89985 3.20855 5.89763 5.10298 7.06098 6.27469L7.47076 6.68542C7.58897 6.80488 7.75052 6.87103 7.91847 6.86857C8.08568 6.86807 8.246 6.80217 8.36593 6.68542C8.48414 6.56743 8.55038 6.40699 8.55038 6.23988C8.55038 6.07278 8.48414 5.91259 8.36593 5.79435L7.95615 5.38363C7.28582 4.70583 7.28803 3.61236 7.96156 2.93728C8.63485 2.26244 9.72604 2.25997 10.4023 2.93209L13.9327 6.47067C13.9628 6.56694 14.0172 6.65382 14.0903 6.72343C14.2085 6.84265 14.3701 6.9088 14.538 6.90658C14.7008 6.90806 14.8572 6.84438 14.9729 6.7296C14.9953 6.71232 15.0165 6.69331 15.036 6.67283C15.0562 6.65456 15.0732 6.63333 15.0865 6.60964L19.9093 1.76927C20.2331 1.4437 20.6737 1.26178 21.1322 1.26376C21.8319 1.26252 22.4633 1.68436 22.7312 2.33229C22.9992 2.97998 22.8507 3.7259 22.3554 4.22105L22.349 4.22747L20.7981 5.81978C20.5562 6.06932 20.5619 6.4682 20.8109 6.71059C21.0598 6.95323 21.4578 6.94755 21.6996 6.698L23.2442 5.10569C24.1032 4.2519 24.3617 2.96221 23.8983 1.84233C23.435 0.72221 22.3419 -0.00569699 21.1322 -1.98607e-05Z" fill="#0094FF"/>
<path d="M11.6697 5.64282C11.322 5.64381 11.0403 5.92619 11.0393 6.27471V28.435C11.0393 28.784 11.3215 29.0669 11.6697 29.0669C12.018 29.0669 12.3002 28.784 12.3002 28.435V6.27471C12.3007 6.10687 12.2344 5.94593 12.1162 5.82721C11.9978 5.70873 11.837 5.64233 11.6697 5.64282Z" fill="#0094FF"/>
<path d="M17.2803 5.64282C16.9326 5.64381 16.6509 5.92619 16.6499 6.27471V28.435C16.6499 28.784 16.9321 29.0669 17.2803 29.0669C17.6286 29.0669 17.9108 28.784 17.9108 28.435V6.27471C17.9113 6.10687 17.845 5.94593 17.7268 5.82721C17.6084 5.70873 17.4475 5.64233 17.2803 5.64282Z" fill="#0094FF"/>
<path d="M25.6082 5.64282H3.40437C1.66378 5.64356 0.252936 7.05766 0.252197 8.80227V12.3283C0.253182 12.6768 0.534908 12.9592 0.882632 12.9601H2.02997V25.9075C2.03071 27.6521 3.44156 29.0664 5.18215 29.0669H23.8241C25.5649 29.0664 26.9757 27.6521 26.9762 25.9075V12.9601H28.1238C28.4715 12.9592 28.7533 12.6768 28.7543 12.3283V8.80227C28.7565 7.96477 28.4257 7.16084 27.8357 6.56795C27.2454 5.97531 26.4438 5.64233 25.6082 5.64282ZM25.7218 25.9075C25.7188 26.9533 24.8736 27.8002 23.8305 27.8031H5.18215C4.13898 27.8002 3.29405 26.9533 3.29084 25.9075V12.9601H25.7154V25.9075H25.7218ZM27.4995 11.6964H1.51307V8.80227C1.51602 7.75669 2.3612 6.90956 3.40437 6.9066H25.6082C26.6517 6.90956 27.4966 7.75669 27.4995 8.80227V11.6964Z" fill="white"/>
</g>
<defs>
<clipPath id="clip0">
<rect width="29" height="29.0669" fill="white"/>
</clipPath>
</defs>
</svg>
