<svg width="29" height="30" viewBox="0 0 29 30" fill="none" xmlns="http://www.w3.org/2000/svg">
<g clip-path="url(#clip0)">
<path d="M0.650635 15.9538H28.298V17.2871H0.650635V15.9538Z" fill="#0094FF"/>
<path d="M0.650635 11.223H28.298V12.5564H0.650635V11.223Z" fill="#0094FF"/>
<path d="M25.6889 5.26671H20.8853V3.21826C20.8807 2.10288 19.9778 1.20105 18.865 1.20001H10.135C9.02224 1.20105 8.11937 2.10288 8.11469 3.21826V5.26671H3.31115C1.47734 5.26671 1.23035e-05 6.77193 1.23035e-05 8.60997V24.5335C-0.00492427 26.3697 1.47631 27.8622 3.30829 27.8669H25.6889C27.5209 27.8638 29.0034 26.3726 29 24.5364V8.60971C29 6.77193 27.5227 5.26671 25.6889 5.26671ZM9.44496 3.21826C9.4486 2.83883 9.75649 2.53336 10.135 2.53336H18.865C19.2435 2.53336 19.5514 2.83883 19.5551 3.21826V5.26671H9.44496V3.21826ZM27.6697 24.5335C27.6697 25.6382 26.7765 26.5335 25.6743 26.5335H3.3257C2.22355 26.5335 1.33029 25.6382 1.33029 24.5335V8.60007C1.33029 7.49538 2.22355 6.60006 3.3257 6.60006H25.6743C26.7765 6.60006 27.6697 7.49538 27.6697 8.60007V24.5335Z" fill="white"/>
</g>
<defs>
<clipPath id="clip0">
<rect width="29" height="29.0669" fill="white"/>
</clipPath>
</defs>
</svg>
