<svg width="29" height="29" viewBox="0 0 29 29" fill="none" xmlns="http://www.w3.org/2000/svg">
<path d="M14.5067 0C22.3566 0 28.7422 6.38559 28.7422 14.2355C28.7422 22.0854 22.3566 28.471 14.5067 28.471C12.8827 28.4708 11.2706 28.1911 9.7411 27.6441L2.04713 28.9929C2.009 28.9985 1.97061 29.0006 1.93195 28.9998C1.70528 28.9982 1.49424 28.8841 1.36899 28.695C1.24374 28.5057 1.22096 28.2669 1.30835 28.0574L3.4029 23.1293C1.37057 20.6113 0.26478 17.4713 0.271135 14.2355C0.271135 6.38559 6.65673 0 14.5067 0V0ZM2.50815 18.9264C3.03218 20.2559 3.77441 21.4886 4.70464 22.5735C4.87332 22.7681 4.91542 23.0421 4.81295 23.2783L3.04383 27.4407L9.68708 26.2814C9.72521 26.2758 9.7636 26.2735 9.80226 26.2748C9.88303 26.2745 9.96326 26.2883 10.0395 26.3153C11.4686 26.8478 12.9814 27.1211 14.5067 27.1221C21.6109 27.1221 27.3864 21.3464 27.3864 14.2424C27.3864 7.13814 21.6109 1.36265 14.5067 1.36265C7.4024 1.36265 1.6269 7.13814 1.6269 14.2424C1.62558 15.8449 1.92453 17.4337 2.50815 18.9264V18.9264Z" fill="white"/>
<path d="M8.72431 12.2901C9.94504 12.2901 10.9343 13.2794 10.9343 14.4998C10.9343 15.7205 9.94504 16.7098 8.72431 16.7098C7.50385 16.7098 6.51456 15.7205 6.51456 14.4998C6.51483 13.2796 7.50412 12.2903 8.72431 12.2901ZM8.72431 15.354C9.19618 15.354 9.57855 14.9717 9.57855 14.4998C9.57855 14.0282 9.19618 13.6458 8.72431 13.6458C8.25271 13.6458 7.87034 14.0282 7.87034 14.4998C7.8706 14.9714 8.25297 15.3535 8.72431 15.354Z" fill="#0094FF"/>
<path d="M14.5066 12.2901C15.727 12.2901 16.7166 13.2794 16.7166 14.4998C16.7166 15.7205 15.727 16.7098 14.5066 16.7098C13.2861 16.7098 12.2968 15.7205 12.2968 14.4998C12.2968 13.2796 13.2861 12.2903 14.5066 12.2901ZM14.5066 15.354C14.9784 15.354 15.3608 14.9717 15.3608 14.4998C15.3608 14.0282 14.9784 13.6458 14.5066 13.6458C14.035 13.6458 13.6526 14.0282 13.6526 14.4998C13.6528 14.9714 14.035 15.3535 14.5066 15.354Z" fill="#0094FF"/>
<path d="M20.289 12.2901C21.5095 12.2901 22.499 13.2794 22.499 14.4998C22.499 15.7205 21.5095 16.7098 20.289 16.7098C19.0686 16.7098 18.079 15.7205 18.079 14.4998C18.0793 13.2796 19.0686 12.2903 20.289 12.2901ZM20.289 15.354C20.7606 15.354 21.1433 14.9717 21.1433 14.4998C21.1433 14.0282 20.7606 13.6458 20.289 13.6458C19.8174 13.6458 19.4348 14.0282 19.4348 14.4998C19.4353 14.9714 19.8174 15.3535 20.289 15.354Z" fill="#0094FF"/>
</svg>
