<svg width="29" height="30" viewBox="0 0 29 30" fill="none" xmlns="http://www.w3.org/2000/svg">
<g clip-path="url(#clip0)">
<path d="M14.5249 29.0669C13.775 29.0683 13.0641 28.7308 12.5901 28.1483L9.04861 23.8138C8.58643 23.2484 8.39357 22.5089 8.52072 21.7894L11.4442 5.21697C11.5139 4.82184 11.89 4.55814 12.2845 4.62797C12.6787 4.6978 12.9418 5.07504 12.8721 5.47017L9.94863 22.0423C9.89539 22.3446 9.97639 22.6551 10.1704 22.8924L13.7118 27.2272C13.9115 27.4716 14.21 27.6132 14.5249 27.6132C14.8398 27.6132 15.1383 27.4716 15.3377 27.2272L18.8794 22.8924C19.0734 22.6551 19.1544 22.3446 19.1012 22.0423L16.178 5.47017C16.1083 5.07504 16.3714 4.6978 16.7656 4.62797C17.1598 4.55814 17.5362 4.82184 17.6059 5.21697L20.5291 21.7894C20.6565 22.5089 20.4637 23.2484 20.0012 23.8138L16.4598 28.1483C15.9857 28.7308 15.2748 29.0683 14.5249 29.0669Z" fill="#0094FF"/>
<path d="M16.8917 6.07027H12.1583C11.8872 6.07027 11.6389 5.91897 11.5142 5.67798L9.13025 1.06106C9.01357 0.835673 9.02291 0.565726 9.15432 0.349143C9.28601 0.132277 9.52078 0 9.77397 0H19.276C19.5292 0 19.764 0.132277 19.8956 0.349143C20.0271 0.565726 20.0364 0.835673 19.9197 1.06106L17.5357 5.67798C17.4111 5.91897 17.1627 6.07027 16.8917 6.07027ZM12.5992 4.61692H16.4508L18.0848 1.45334H10.966L12.5992 4.61692Z" fill="white"/>
</g>
<defs>
<clipPath id="clip0">
<rect width="29" height="29.0669" fill="white"/>
</clipPath>
</defs>
</svg>
