<svg width="25" height="25" viewBox="0 0 25 25" fill="none" xmlns="http://www.w3.org/2000/svg">
<circle cx="12.5" cy="12.5" r="12" stroke="#0094FF"/>
<path d="M12.5373 9.54545V15.9091H11.8919V10.8182L9.39186 15.1H9.07368L6.57368 10.8455V15.9091H5.92822V9.54545H6.48277L9.2464 14.2636L11.9828 9.54545H12.5373Z" fill="#0094FF"/>
<path d="M17.3744 15.9636C16.7441 15.9636 16.1744 15.8242 15.6653 15.5455C15.1623 15.2667 14.7653 14.8818 14.4744 14.3909C14.1895 13.8939 14.0471 13.3394 14.0471 12.7273C14.0471 12.1151 14.1895 11.5636 14.4744 11.0727C14.7653 10.5758 15.1653 10.1879 15.6744 9.90909C16.1835 9.6303 16.7532 9.49091 17.3835 9.49091C17.8562 9.49091 18.2926 9.56969 18.6926 9.72727C19.0926 9.88485 19.432 10.1151 19.7108 10.4182L19.2835 10.8455C18.7865 10.3424 18.1592 10.0909 17.4017 10.0909C16.8986 10.0909 16.4411 10.2061 16.0289 10.4364C15.6168 10.6667 15.2926 10.9818 15.0562 11.3818C14.8259 11.7818 14.7108 12.2303 14.7108 12.7273C14.7108 13.2242 14.8259 13.6727 15.0562 14.0727C15.2926 14.4727 15.6168 14.7879 16.0289 15.0182C16.4411 15.2485 16.8986 15.3636 17.4017 15.3636C18.1653 15.3636 18.7926 15.1091 19.2835 14.6L19.7108 15.0273C19.432 15.3303 19.0895 15.5636 18.6835 15.7273C18.2835 15.8848 17.8471 15.9636 17.3744 15.9636Z" fill="#0094FF"/>
</svg>
