<svg width="29" height="29" viewBox="0 0 29 29" fill="none" xmlns="http://www.w3.org/2000/svg">
<path d="M17.3174 29H11.5086C11.0156 29 10.5868 28.6392 10.4647 28.1226C10.4568 28.0898 10.4514 28.0561 10.4483 28.0224L10.1328 24.5543C9.33956 24.1997 8.58567 23.7633 7.88333 23.2515L4.72816 24.7032C4.48885 24.848 4.19829 24.8797 3.93349 24.7902C3.68541 24.6984 3.47782 24.5223 3.3467 24.2926C3.345 24.2898 3.34301 24.2866 3.34132 24.2835L0.436785 19.2844C0.160095 18.801 0.284421 18.1873 0.727634 17.8497C0.73698 17.8424 0.746609 17.8358 0.756238 17.8293L3.73327 15.8027C3.66728 15.3714 3.63188 14.9361 3.62735 14.5C3.63188 14.0619 3.66757 13.6249 3.73384 13.1919L0.891892 11.1715C0.886794 11.1678 0.88198 11.1642 0.877449 11.1608C0.420642 10.826 0.290085 10.2007 0.574704 9.71103L3.48065 4.70854C3.71826 4.27608 4.31978 4.07784 4.81426 4.2758C4.82558 4.28033 4.83691 4.28515 4.84796 4.29024L8.01077 5.74506C8.62532 5.27381 9.36788 4.84589 10.2687 4.44544L10.5854 0.946748C10.612 0.429053 11.0858 0 11.644 0H17.4522C17.9453 0 18.3743 0.361084 18.4964 0.877646C18.504 0.910781 18.5094 0.944482 18.5125 0.978467L18.8274 4.44572C19.621 4.80029 20.3751 5.23699 21.0778 5.74874L24.2318 4.29732C24.6433 4.06368 25.2445 4.09342 25.6152 4.71023L28.5894 9.71273C28.8692 10.199 28.7427 10.8175 28.2946 11.1551C28.2892 11.1588 28.2841 11.1627 28.2788 11.1667L25.43 13.1922C25.4963 13.6252 25.5317 14.0622 25.5359 14.5C25.5314 14.9409 25.4957 15.381 25.4289 15.8166L28.0885 17.8429C28.5424 18.1782 28.671 18.8016 28.3864 19.2892L25.4796 24.2929C25.2425 24.7219 24.6419 24.9202 24.1499 24.7259C24.1375 24.7211 24.125 24.7157 24.1128 24.71L20.9506 23.2552C20.3369 23.7259 19.5943 24.1533 18.6929 24.5543L18.3757 28.0535C18.3494 28.5712 17.8753 29 17.3174 29V29ZM11.8618 27.55H16.9657L17.2879 23.9947C17.312 23.7293 17.4797 23.4988 17.7244 23.3937L17.9107 23.3141C18.879 22.8987 19.6354 22.4631 20.2225 21.9825L20.3865 21.8477C20.6011 21.6721 20.8971 21.6342 21.1491 21.75L24.4085 23.2498L26.9808 18.8217L24.2117 16.7121C24.0024 16.5527 23.8959 16.2924 23.9336 16.0318L23.9622 15.8333C24.0361 15.3924 24.0777 14.9463 24.0859 14.4994C24.0772 14.052 24.0358 13.6059 23.9616 13.1644L23.9327 12.9585C23.8942 12.69 24.0089 12.4227 24.2298 12.2652L27.1757 10.1718L24.5461 5.74931L21.2927 7.24575C21.0509 7.35705 20.7674 7.32675 20.5544 7.16702L20.3921 7.04496C19.6685 6.49781 18.8804 6.04157 18.0455 5.68615L17.8589 5.60657C17.6139 5.50179 17.4462 5.27098 17.4222 5.00562L17.0993 1.45H11.9954L11.6737 5.00505C11.6496 5.27069 11.482 5.5015 11.237 5.60629L11.0501 5.68615C10.0832 6.10048 9.3271 6.53604 8.73888 7.01721L8.57406 7.15201C8.35968 7.3276 8.06401 7.36555 7.81224 7.25L4.55258 5.75016L1.98506 10.1695L4.93377 12.2661C5.15495 12.4233 5.26965 12.6906 5.23141 12.9591L5.20253 13.1647C5.12833 13.6062 5.08641 14.0525 5.07735 14.5C5.08613 14.9452 5.12748 15.389 5.20111 15.8279L5.23113 16.0386C5.26908 16.3051 5.15636 16.5705 4.9383 16.7282L4.76384 16.8548C4.75818 16.8588 4.75252 16.8628 4.74685 16.8667L1.85365 18.8364L4.41805 23.2498L7.66838 21.7545C7.90995 21.6432 8.19343 21.6735 8.4064 21.8333L8.56868 21.955C9.29255 22.5022 10.0807 22.9584 10.9156 23.3141L11.1019 23.3937C11.3466 23.4988 11.514 23.7293 11.5383 23.9944L11.8618 27.55Z" fill="white"/>
<path d="M14.5139 18.4294C12.3437 18.4294 10.5845 16.6702 10.5845 14.5C10.5845 12.3298 12.3437 10.5706 14.5139 10.5706C16.6841 10.5706 18.4434 12.3298 18.4434 14.5C18.4669 16.647 16.7453 18.4062 14.5986 18.4294C14.5703 18.4297 14.5422 18.4297 14.5139 18.4294ZM14.5139 12.0206C13.1446 12.0206 12.0345 13.1307 12.0345 14.5C12.0345 15.8693 13.1446 16.9794 14.5139 16.9794C15.8835 16.9794 16.9934 15.8693 16.9934 14.5C17.0084 13.1454 15.9223 12.0353 14.5677 12.0206C14.5496 12.0206 14.5318 12.0206 14.5139 12.0206Z" fill="#0094FF"/>
</svg>
