<svg width="29" height="30" viewBox="0 0 29 30" fill="none" xmlns="http://www.w3.org/2000/svg">
<g clip-path="url(#clip0)">
<path d="M14.4806 9.09473C10.9215 9.09473 8.03613 11.9865 8.03613 15.554C8.03613 19.1213 10.9215 22.0133 14.4806 22.0133C18.0399 22.0133 20.925 19.1213 20.925 15.554C20.9192 11.9891 18.0374 9.10053 14.4806 9.09473ZM14.4806 20.7215C11.6332 20.7215 9.32502 18.408 9.32502 15.554C9.32502 12.7001 11.6332 10.3866 14.4806 10.3866C17.328 10.3866 19.6361 12.7001 19.6361 15.554C19.6324 18.4062 17.3265 20.7177 14.4806 20.7215Z" fill="#0094FF"/>
<path d="M22.1301 2.04124H19.2946V0.645931C19.2936 0.28966 19.0058 0.00100927 18.6501 0H10.3111C9.95566 0.00100927 9.66767 0.28966 9.66667 0.645931V2.04124H6.83111C5.05184 2.04175 3.60964 3.48727 3.60889 5.2709V25.8372C3.60964 27.6206 5.05184 29.0661 6.83111 29.0669H22.1301C23.9096 29.0661 25.3518 27.6206 25.3523 25.8372V5.2709C25.3518 3.48727 23.9096 2.04175 22.1301 2.04124ZM10.9556 1.29186H18.0057V3.96592H10.9556V1.29186ZM24.0635 25.8372C24.0604 26.9061 23.1967 27.772 22.1301 27.775H6.83111C5.76476 27.772 4.9008 26.9061 4.89778 25.8372V5.2709C4.9008 4.20183 5.76476 3.33613 6.83111 3.33311H9.66667V4.61841C9.66767 4.97468 9.95566 5.26333 10.3111 5.26434H18.6501C19.0058 5.26333 19.2936 4.97468 19.2946 4.61841V3.33311H22.1301C23.1967 3.33613 24.0604 4.20183 24.0635 5.2709V25.8372Z" fill="white"/>
<path d="M17.1229 13.4159L13.7267 16.6716L11.9867 14.9276C11.7357 14.676 11.3289 14.676 11.0779 14.9276C10.8272 15.1789 10.8272 15.5866 11.0779 15.8382L13.2628 18.028C13.3836 18.1499 13.5487 18.2175 13.7202 18.2153C13.8866 18.2168 14.0467 18.1517 14.165 18.0343L18.0188 14.3462C18.1419 14.2281 18.2132 14.0657 18.2169 13.8948C18.2205 13.724 18.1563 13.5585 18.0379 13.4354C17.7887 13.1813 17.3827 13.1727 17.1229 13.4159Z" fill="white"/>
</g>
<defs>
<clipPath id="clip0">
<rect width="29" height="29.0669" fill="white"/>
</clipPath>
</defs>
</svg>
