<?xml version="1.0" encoding="utf-8"?><svg width="29" height="29" fill="none" xmlns="http://www.w3.org/2000/svg" viewBox="0 0 29 29"><path d="M14.507 0c7.85 0 14.235 6.386 14.235 14.236 0 7.85-6.385 14.235-14.235 14.235-1.624 0-3.236-.28-4.766-.827l-7.694 1.349a.68.68 0 01-.739-.935l2.095-4.929A14.117 14.117 0 01.27 14.235C.271 6.386 6.657 0 14.507 0zM2.508 18.926a12.831 12.831 0 002.197 3.648.67.67 0 01.108.704l-1.77 4.163 6.644-1.16a.643.643 0 01.115-.006c.081 0 .161.013.238.04 1.429.533 2.941.806 4.467.807 7.104 0 12.88-5.776 12.88-12.88 0-7.104-5.776-12.88-12.88-12.88-7.105 0-12.88 5.776-12.88 12.88a12.835 12.835 0 00.881 4.684z" fill="#fff"/><path d="M8.724 12.29a2.21 2.21 0 110 4.42 2.21 2.21 0 010-4.42zm0 3.064a.854.854 0 100-1.708.854.854 0 000 1.708zM14.507 12.29a2.21 2.21 0 110 4.42 2.21 2.21 0 010-4.42zm0 3.064a.854.854 0 100-1.708.854.854 0 000 1.708zM20.289 12.29a2.21 2.21 0 110 4.42 2.21 2.21 0 010-4.42zm0 3.064a.854.854 0 100-1.709.854.854 0 000 1.709z" fill="#0094FF"/></svg>