<?xml version="1.0" encoding="utf-8"?><svg width="29" height="29" fill="none" xmlns="http://www.w3.org/2000/svg" viewBox="0 0 29 29"><path d="M17.317 29H11.51c-.493 0-.922-.36-1.044-.877a.705.705 0 01-.017-.1l-.315-3.469a12.438 12.438 0 01-2.25-1.302l-3.155 1.451a.948.948 0 01-.795.087 1.125 1.125 0 01-.586-.497l-.006-.01-2.904-4.999a1.11 1.11 0 01.32-1.455l2.976-2.026a9.248 9.248 0 01-.106-1.303 9.28 9.28 0 01.107-1.308l-2.842-2.02a1.107 1.107 0 01-.317-1.46L3.48 4.708c.237-.433.839-.631 1.333-.433l.034.014 3.163 1.455c.614-.471 1.357-.9 2.258-1.3l.316-3.498c.027-.518.5-.947 1.059-.947h5.808c.493 0 .922.361 1.044.878a.76.76 0 01.017.1l.314 3.468c.794.354 1.548.791 2.25 1.303l3.155-1.452c.411-.233 1.012-.204 1.383.413l2.974 5.003c.28.486.154 1.105-.294 1.442l-.016.012-2.849 2.025c.066.433.102.87.106 1.308-.005.44-.04.881-.107 1.317l2.66 2.026c.453.335.582.959.297 1.446l-2.906 5.004c-.238.429-.838.627-1.33.433a.6.6 0 01-.037-.016l-3.162-1.455c-.614.47-1.357.898-2.258 1.3l-.317 3.498c-.027.518-.5.947-1.059.947zm-5.455-1.45h5.104l.322-3.555a.726.726 0 01.436-.601l.187-.08c.968-.415 1.724-.85 2.311-1.331l.165-.135a.726.726 0 01.762-.098l3.26 1.5 2.572-4.428-2.77-2.11a.725.725 0 01-.277-.68l.028-.199a9.08 9.08 0 00.124-1.334 9.124 9.124 0 00-.124-1.335l-.03-.205a.725.725 0 01.298-.694l2.946-2.093-2.63-4.423-3.253 1.497a.725.725 0 01-.739-.079l-.162-.122a11.097 11.097 0 00-2.346-1.359l-.187-.08a.725.725 0 01-.437-.6L17.1 1.45h-5.104l-.321 3.555a.725.725 0 01-.437.601l-.187.08c-.967.414-1.723.85-2.311 1.331l-.165.135a.725.725 0 01-.762.098l-3.26-1.5-2.567 4.42 2.949 2.096a.725.725 0 01.297.693l-.028.206a9.178 9.178 0 00-.126 1.335c.01.445.05.889.124 1.328l.03.21a.725.725 0 01-.293.69l-.174.127-.017.012-2.893 1.97 2.564 4.413 3.25-1.495a.725.725 0 01.738.078l.163.122a11.117 11.117 0 002.347 1.36l.186.079a.726.726 0 01.436.6l.324 3.556z" fill="#fff"/><path d="M14.514 18.43a3.93 3.93 0 113.93-3.93 3.887 3.887 0 01-3.93 3.93zm0-6.41a2.48 2.48 0 102.48 2.48 2.452 2.452 0 00-2.426-2.48h-.054z" fill="#0094FF"/></svg>