<?xml version="1.0" encoding="utf-8"?><svg width="29" height="30" fill="none" xmlns="http://www.w3.org/2000/svg" viewBox="0 0 29 30"><g clip-path="url(#aclip0)"><path d="M.65 15.954h27.648v1.333H.651v-1.333zM.65 11.223h27.648v1.333H.651v-1.333z" fill="#0094FF"/><path d="M25.689 5.267h-4.804V3.218a2.024 2.024 0 00-2.02-2.018h-8.73a2.024 2.024 0 00-2.02 2.018v2.049H3.31C1.477 5.267 0 6.772 0 8.61v15.924a3.32 3.32 0 003.308 3.333h22.38A3.32 3.32 0 0029 24.537V8.61c0-1.838-1.477-3.343-3.311-3.343zM9.445 3.218a.69.69 0 01.69-.685h8.73a.69.69 0 01.69.685v2.049H9.445V3.218zM27.67 24.534c0 1.104-.894 2-1.996 2H3.326a1.998 1.998 0 01-1.996-2V8.6c0-1.105.894-2 1.996-2h22.348c1.102 0 1.996.895 1.996 2v15.934z" fill="#fff"/></g><defs><clipPath id="aclip0"><path fill="#fff" d="M0 0h29v29.067H0z"/></clipPath></defs></svg>