<?xml version="1.0" encoding="utf-8"?><svg width="29" height="29" fill="none" xmlns="http://www.w3.org/2000/svg" viewBox="0 0 29 29"><path d="M20.249 18.195a.58.58 0 00-.126-.632L17.48 14.92V9.57a.58.58 0 00-.58-.58h-2.026a.58.58 0 00-.58.58v2.164l-3.737-3.737a.58.58 0 00-.82 0L.17 17.563a.58.58 0 00.41.99h2.222v7.277c0 .32.26.58.58.58H16.91c.32 0 .58-.26.58-.58v-7.277h2.222a.58.58 0 00.536-.358zm-4.795-5.962h.866v1.449l-.867-.866v-.583zm.866-2.082v.922h-.867v-.922h.867zM11.817 25.25H8.475v-5.606h3.342v5.606zm5.094-7.857a.58.58 0 00-.58.58v7.277h-3.354v-6.186a.58.58 0 00-.58-.58H7.895a.58.58 0 00-.58.58v6.186H3.962v-7.277a.58.58 0 00-.58-.58H1.98l8.167-8.166 8.166 8.166h-1.402zM25.638 24.296l-.005-.017c-.293-1.196-1.338-2.067-2.546-2.118l-.121-.002a2.92 2.92 0 00-2.408 1.264 2.373 2.373 0 00-2.106 2.355h1.16a1.211 1.211 0 011.25-1.209.58.58 0 00.542-.308c.305-.58.907-.943 1.562-.942.027 0 .054 0 .076.002.681.028 1.276.521 1.457 1.204.02.519-.002 1.227-.002 1.234l1.159.038c.001-.033.026-.816 0-1.383a.57.57 0 00-.018-.118z" fill="#0094FF"/><path d="M25.532 3.016a.58.58 0 00-1.137 0l-3.457 16.962a.58.58 0 00.569.696h2.99v4.58H.843v1.16H27.31v-1.16h-1.654v-4.58h2.764a.58.58 0 00.568-.696L25.532 3.016zm-2.386 11.94l.222-1.091h3.19l.223 1.09h-3.635zm3.872 1.16l.222 1.091h-4.553l.223-1.09 4.108-.001zm-.695-3.411h-2.718l.222-1.09H26.1l.223 1.09zm-1.36-6.668l.9 4.417h-1.8l.9-4.417zm-2.746 13.477l.234-1.147h5.025l.234 1.147h-5.493z" fill="#fff"/></svg>