<?xml version="1.0" encoding="utf-8"?><svg width="29" height="30" fill="none" xmlns="http://www.w3.org/2000/svg" viewBox="0 0 29 30"><g clip-path="url(#gclip0)"><path d="M14.525 29.067a2.489 2.489 0 01-1.935-.919L9.05 23.814a2.51 2.51 0 01-.528-2.025l2.923-16.572a.725.725 0 111.428.253L9.95 22.042c-.054.303.027.613.221.85l3.542 4.335a1.05 1.05 0 001.626 0l3.541-4.335c.194-.237.275-.547.222-.85L16.178 5.47a.725.725 0 111.428-.253l2.923 16.572a2.507 2.507 0 01-.528 2.025l-3.541 4.334a2.49 2.49 0 01-1.935.919z" fill="#0094FF"/><path d="M16.892 6.07h-4.734a.725.725 0 01-.644-.392L9.13 1.061A.728.728 0 019.774 0h9.502a.725.725 0 01.644 1.061l-2.384 4.617a.725.725 0 01-.644.392zm-4.293-1.453h3.852l1.634-3.164h-7.119l1.633 3.164z" fill="#fff"/></g><defs><clipPath id="gclip0"><path fill="#fff" d="M0 0h29v29.067H0z"/></clipPath></defs></svg>