<?xml version="1.0" encoding="utf-8"?><svg width="29" height="30" fill="none" xmlns="http://www.w3.org/2000/svg" viewBox="0 0 29 30"><g clip-path="url(#cclip0)"><path d="M21.132 0a2.942 2.942 0 00-2.112.878l-4.444 4.449-3.285-3.292a2.986 2.986 0 00-4.225.005 3.003 3.003 0 00-.005 4.235l.41.41c.118.12.28.186.447.184a.63.63 0 00.447-1.074l-.409-.411a1.736 1.736 0 01.006-2.447 1.727 1.727 0 012.44-.005l3.53 3.539c.03.096.085.183.158.252.119.12.28.186.448.184a.61.61 0 00.435-.177.557.557 0 00.113-.12l4.823-4.84a1.714 1.714 0 011.223-.506c.7-.001 1.331.42 1.6 1.068.267.648.119 1.394-.377 1.89l-.006.005-1.55 1.593a.63.63 0 00.012.89.627.627 0 00.889-.012l1.544-1.592a2.99 2.99 0 00.654-3.264A2.98 2.98 0 0021.132 0z" fill="#0094FF"/><path d="M11.67 5.643a.633.633 0 00-.63.632v22.16a.631.631 0 101.26 0V6.275a.632.632 0 00-.63-.632zM17.28 5.643a.633.633 0 00-.63.632v22.16a.631.631 0 101.26 0V6.275a.632.632 0 00-.63-.632z" fill="#0094FF"/><path d="M25.608 5.643H3.404a3.157 3.157 0 00-3.152 3.16v3.525c.001.349.283.631.63.632H2.03v12.947a3.157 3.157 0 003.152 3.16h18.642a3.157 3.157 0 003.152-3.16V12.96h1.148c.348 0 .63-.283.63-.632V8.802a3.156 3.156 0 00-.918-2.234 3.142 3.142 0 00-2.228-.925zm.114 20.264a1.899 1.899 0 01-1.892 1.896H5.183a1.899 1.899 0 01-1.891-1.896V12.96h22.424v12.947h.007zm1.777-14.21H1.514V8.801a1.9 1.9 0 011.891-1.895h22.204A1.899 1.899 0 0127.5 8.802v2.894z" fill="#fff"/></g><defs><clipPath id="cclip0"><path fill="#fff" d="M0 0h29v29.067H0z"/></clipPath></defs></svg>