<?xml version="1.0" encoding="utf-8"?><svg width="29" height="30" fill="none" xmlns="http://www.w3.org/2000/svg" viewBox="0 0 29 30"><g clip-path="url(#iclip0)"><path d="M14.48 9.095c-3.559 0-6.444 2.891-6.444 6.459 0 3.567 2.886 6.46 6.445 6.46s6.444-2.893 6.444-6.46c-.006-3.565-2.888-6.453-6.444-6.46zm0 11.626a5.161 5.161 0 01-5.155-5.167 5.161 5.161 0 015.156-5.167 5.161 5.161 0 015.155 5.167 5.168 5.168 0 01-5.155 5.167z" fill="#0094FF"/><path d="M22.13 2.041h-2.835V.646A.647.647 0 0018.65 0h-8.339a.647.647 0 00-.644.646V2.04H6.83a3.227 3.227 0 00-3.222 3.23v20.566a3.227 3.227 0 003.222 3.23h15.3a3.227 3.227 0 003.221-3.23V5.271a3.227 3.227 0 00-3.222-3.23zm-11.174-.75h7.05v2.675h-7.05V1.292zm13.108 24.546a1.941 1.941 0 01-1.934 1.938H6.831a1.941 1.941 0 01-1.933-1.938V5.271A1.941 1.941 0 016.83 3.333h2.836v1.285a.647.647 0 00.644.646h8.34a.647.647 0 00.644-.646V3.333h2.835a1.941 1.941 0 011.934 1.938v20.566z" fill="#fff"/><path d="M17.123 13.416l-3.396 3.256-1.74-1.744a.641.641 0 00-.91 0 .645.645 0 000 .91l2.186 2.19c.12.122.286.19.457.187a.623.623 0 00.445-.18l3.854-3.689a.645.645 0 00.019-.91.655.655 0 00-.915-.02z" fill="#fff"/></g><defs><clipPath id="iclip0"><path fill="#fff" d="M0 0h29v29.067H0z"/></clipPath></defs></svg>