<?xml version="1.0" encoding="utf-8"?><svg width="25" height="25" fill="none" xmlns="http://www.w3.org/2000/svg" viewBox="0 0 25 25"><circle cx="12.5" cy="12.5" r="12" stroke="#0094FF"/><path d="M12.537 9.545v6.364h-.645v-5.09l-2.5 4.281h-.318l-2.5-4.255v5.064h-.646V9.545h.555l2.763 4.719 2.737-4.719h.554zM17.374 15.964a3.5 3.5 0 01-1.709-.418 3.114 3.114 0 01-1.19-1.155 3.285 3.285 0 01-.428-1.664c0-.612.143-1.163.427-1.654.291-.497.691-.885 1.2-1.164a3.499 3.499 0 011.71-.418c.472 0 .909.079 1.309.236.4.158.739.388 1.018.691l-.427.428c-.497-.504-1.125-.755-1.882-.755-.503 0-.96.115-1.373.345-.412.23-.736.546-.973.946-.23.4-.345.848-.345 1.345s.115.946.345 1.346c.237.4.56.715.973.945.412.23.87.346 1.373.346.763 0 1.39-.255 1.881-.764l.428.427a2.793 2.793 0 01-1.027.7c-.4.158-.837.237-1.31.237z" fill="#0094FF"/></svg>