<?xml version="1.0" encoding="utf-8"?><svg width="29" height="30" fill="none" xmlns="http://www.w3.org/2000/svg" viewBox="0 0 29 30"><g clip-path="url(#hclip0)"><path d="M9.328 2.604c-3.223 0-5.836 2.619-5.836 5.85 0 3.23 2.613 5.85 5.836 5.85 3.224 0 5.837-2.62 5.837-5.85-.005-3.23-2.615-5.846-5.837-5.85zm0 10.488a4.633 4.633 0 01-4.627-4.638 4.633 4.633 0 014.627-4.639 4.633 4.633 0 014.628 4.639 4.637 4.637 0 01-4.628 4.638zM26.438 6.625a2.068 2.068 0 00-.815.163 4.805 4.805 0 00-2.073-1.913 4.636 4.636 0 00-2.005-.448 4.73 4.73 0 00-4.72 4.71v.013a4.725 4.725 0 003.877 4.654 4.716 4.716 0 005.259-2.995 2.117 2.117 0 002.595-2.068 2.117 2.117 0 00-2.118-2.116zm-4.9-.987c.34.001.677.05 1.003.145-.26.6-.561 1.108-.918 1.52-.018.018-.03.036-.048.055-.544.623-1.203 1.035-1.958 1.223a4.02 4.02 0 01-1.553.079 3.518 3.518 0 013.474-3.022zm0 7.03a3.52 3.52 0 01-3.431-2.78c.174.019.35.027.525.025.407 0 .813-.046 1.209-.14a4.837 4.837 0 002.114-1.101c.181.236.384.454.604.654.69.63 1.456.975 2.266 1.03a3.487 3.487 0 01-3.287 2.312zm3.51-3.512c-1.135-.012-1.908-.896-2.253-1.393.328-.448.605-.932.828-1.441.513.38.913.893 1.16 1.484.013.06.035.117.066.17.132.379.2.778.2 1.18zm1.39.497a.762.762 0 01-.205-.025 4.75 4.75 0 00-.145-1.726.864.864 0 01.35-.066.908.908 0 010 1.817z" fill="#fff"/><path d="M21.538 15.69c-2.368 0-4.525 1.09-5.908 2.95a9.163 9.163 0 00-6.302-2.471c-2.52 0-4.863.98-6.603 2.76C.967 20.735 0 23.2 0 25.87c0 .334.27.605.604.606h17.448a.607.607 0 00.605-.606c0-.61-.053-1.22-.157-1.822h9.896A.607.607 0 0029 23.44c0-2.131-.773-4.1-2.181-5.54a7.314 7.314 0 00-5.28-2.21zM1.227 25.264c.132-2.12.96-4.045 2.362-5.486a8.072 8.072 0 0111.479 0c1.402 1.44 2.23 3.367 2.362 5.486H1.227zm16.989-2.428a9.55 9.55 0 00-1.746-3.295 6.194 6.194 0 019.485-.793c1.051 1.078 1.68 2.513 1.813 4.088h-9.552z" fill="#0094FF"/></g><defs><clipPath id="hclip0"><path fill="#fff" d="M0 0h29v29.067H0z"/></clipPath></defs></svg>