<?xml version="1.0" encoding="utf-8"?><svg viewBox="0 0 27 27" xmlns="http://www.w3.org/2000/svg" xmlns:xlink="http://www.w3.org/1999/xlink"><style>:root>svg{display:none}:root>svg:target{display:block}</style><svg fill="none" viewBox="0 0 22 22" id="icon-cancel" xmlns="http://www.w3.org/2000/svg"><g opacity=".5" stroke="#fff" stroke-linecap="round"><path d="M21 1L1 21M1 1l20 20"/></g></svg><svg fill="none" viewBox="0 0 27 27" id="icon-card" xmlns="http://www.w3.org/2000/svg"><path d="M.45 8.1h26.1" stroke="#fff"/><path d="M3 5h21a2.5 2.5 0 012.5 2.5v12A2.5 2.5 0 0124 22H3a2.5 2.5 0 01-2.5-2.5v-12A2.5 2.5 0 013 5zM.45 11.25h26.1" stroke="#0094FF"/><path d="M8.5 16.65a2.65 2.65 0 11-5.3 0 2.65 2.65 0 015.3 0z" stroke="#fff"/><path d="M11.2 16.65a2.65 2.65 0 11-5.3 0 2.65 2.65 0 015.3 0z" stroke="#fff"/></svg><svg fill="none" viewBox="0 0 27 27" id="icon-wallet" xmlns="http://www.w3.org/2000/svg"><path d="M6.268 6l4-4 4 4" stroke="#fff" stroke-linecap="round" stroke-linejoin="round"/><path d="M12.768 4.5l2.5-2.5 4 4" stroke="#fff" stroke-linecap="round" stroke-linejoin="round"/><path d="M25 19v3a3 3 0 01-3 3H4a3 3 0 01-3-3V9a3 3 0 013-3h18a3 3 0 013 3v3" stroke="#0094FF"/><path d="M20.5 12.5h5.995l.003.002a.01.01 0 01.002.003v5.99l-.002.003a.01.01 0 01-.003.002s0 0 0 0H20.5a3 3 0 110-6z" stroke="#0094FF" stroke-linejoin="round"/><circle cx="20.5" cy="15.5" r="1" stroke="#0094FF"/></svg></svg>