<?xml version="1.0" encoding="utf-8"?><svg viewBox="0 0 29 30" xmlns="http://www.w3.org/2000/svg" xmlns:xlink="http://www.w3.org/1999/xlink"><style>:root>svg{display:none}:root>svg:target{display:block}</style><svg fill="none" viewBox="0 0 29 30" id="menu-briefcase" xmlns="http://www.w3.org/2000/svg"><g clip-path="url(#aclip0)"><path d="M.65 15.954h27.648v1.333H.651v-1.333zM.65 11.223h27.648v1.333H.651v-1.333z" fill="#0094FF"/><path d="M25.689 5.267h-4.804V3.218a2.024 2.024 0 00-2.02-2.018h-8.73a2.024 2.024 0 00-2.02 2.018v2.049H3.31C1.477 5.267 0 6.772 0 8.61v15.924a3.32 3.32 0 003.308 3.333h22.38A3.32 3.32 0 0029 24.537V8.61c0-1.838-1.477-3.343-3.311-3.343zM9.445 3.218a.69.69 0 01.69-.685h8.73a.69.69 0 01.69.685v2.049H9.445V3.218zM27.67 24.534c0 1.104-.894 2-1.996 2H3.326a1.998 1.998 0 01-1.996-2V8.6c0-1.105.894-2 1.996-2h22.348c1.102 0 1.996.895 1.996 2v15.934z" fill="#fff"/></g><defs><clipPath id="aclip0"><path fill="#fff" d="M0 0h29v29.067H0z"/></clipPath></defs></svg><svg fill="none" viewBox="0 0 29 29" id="menu-gear" xmlns="http://www.w3.org/2000/svg"><path d="M17.317 29H11.51c-.493 0-.922-.36-1.044-.877a.705.705 0 01-.017-.1l-.315-3.469a12.438 12.438 0 01-2.25-1.302l-3.155 1.451a.948.948 0 01-.795.087 1.125 1.125 0 01-.586-.497l-.006-.01-2.904-4.999a1.11 1.11 0 01.32-1.455l2.976-2.026a9.248 9.248 0 01-.106-1.303 9.28 9.28 0 01.107-1.308l-2.842-2.02a1.107 1.107 0 01-.317-1.46L3.48 4.708c.237-.433.839-.631 1.333-.433l.034.014 3.163 1.455c.614-.471 1.357-.9 2.258-1.3l.316-3.498c.027-.518.5-.947 1.059-.947h5.808c.493 0 .922.361 1.044.878a.76.76 0 01.017.1l.314 3.468c.794.354 1.548.791 2.25 1.303l3.155-1.452c.411-.233 1.012-.204 1.383.413l2.974 5.003c.28.486.154 1.105-.294 1.442l-.016.012-2.849 2.025c.066.433.102.87.106 1.308-.005.44-.04.881-.107 1.317l2.66 2.026c.453.335.582.959.297 1.446l-2.906 5.004c-.238.429-.838.627-1.33.433a.6.6 0 01-.037-.016l-3.162-1.455c-.614.47-1.357.898-2.258 1.3l-.317 3.498c-.027.518-.5.947-1.059.947zm-5.455-1.45h5.104l.322-3.555a.726.726 0 01.436-.601l.187-.08c.968-.415 1.724-.85 2.311-1.331l.165-.135a.726.726 0 01.762-.098l3.26 1.5 2.572-4.428-2.77-2.11a.725.725 0 01-.277-.68l.028-.199a9.08 9.08 0 00.124-1.334 9.124 9.124 0 00-.124-1.335l-.03-.205a.725.725 0 01.298-.694l2.946-2.093-2.63-4.423-3.253 1.497a.725.725 0 01-.739-.079l-.162-.122a11.097 11.097 0 00-2.346-1.359l-.187-.08a.725.725 0 01-.437-.6L17.1 1.45h-5.104l-.321 3.555a.725.725 0 01-.437.601l-.187.08c-.967.414-1.723.85-2.311 1.331l-.165.135a.725.725 0 01-.762.098l-3.26-1.5-2.567 4.42 2.949 2.096a.725.725 0 01.297.693l-.028.206a9.178 9.178 0 00-.126 1.335c.01.445.05.889.124 1.328l.03.21a.725.725 0 01-.293.69l-.174.127-.017.012-2.893 1.97 2.564 4.413 3.25-1.495a.725.725 0 01.738.078l.163.122a11.117 11.117 0 002.347 1.36l.186.079a.726.726 0 01.436.6l.324 3.556z" fill="#fff"/><path d="M14.514 18.43a3.93 3.93 0 113.93-3.93 3.887 3.887 0 01-3.93 3.93zm0-6.41a2.48 2.48 0 102.48 2.48 2.452 2.452 0 00-2.426-2.48h-.054z" fill="#0094FF"/></svg><svg fill="none" viewBox="0 0 29 30" id="menu-gift" xmlns="http://www.w3.org/2000/svg"><g clip-path="url(#cclip0)"><path d="M21.132 0a2.942 2.942 0 00-2.112.878l-4.444 4.449-3.285-3.292a2.986 2.986 0 00-4.225.005 3.003 3.003 0 00-.005 4.235l.41.41c.118.12.28.186.447.184a.63.63 0 00.447-1.074l-.409-.411a1.736 1.736 0 01.006-2.447 1.727 1.727 0 012.44-.005l3.53 3.539c.03.096.085.183.158.252.119.12.28.186.448.184a.61.61 0 00.435-.177.557.557 0 00.113-.12l4.823-4.84a1.714 1.714 0 011.223-.506c.7-.001 1.331.42 1.6 1.068.267.648.119 1.394-.377 1.89l-.006.005-1.55 1.593a.63.63 0 00.012.89.627.627 0 00.889-.012l1.544-1.592a2.99 2.99 0 00.654-3.264A2.98 2.98 0 0021.132 0z" fill="#0094FF"/><path d="M11.67 5.643a.633.633 0 00-.63.632v22.16a.631.631 0 101.26 0V6.275a.632.632 0 00-.63-.632zM17.28 5.643a.633.633 0 00-.63.632v22.16a.631.631 0 101.26 0V6.275a.632.632 0 00-.63-.632z" fill="#0094FF"/><path d="M25.608 5.643H3.404a3.157 3.157 0 00-3.152 3.16v3.525c.001.349.283.631.63.632H2.03v12.947a3.157 3.157 0 003.152 3.16h18.642a3.157 3.157 0 003.152-3.16V12.96h1.148c.348 0 .63-.283.63-.632V8.802a3.156 3.156 0 00-.918-2.234 3.142 3.142 0 00-2.228-.925zm.114 20.264a1.899 1.899 0 01-1.892 1.896H5.183a1.899 1.899 0 01-1.891-1.896V12.96h22.424v12.947h.007zm1.777-14.21H1.514V8.801a1.9 1.9 0 011.891-1.895h22.204A1.899 1.899 0 0127.5 8.802v2.894z" fill="#fff"/></g><defs><clipPath id="cclip0"><path fill="#fff" d="M0 0h29v29.067H0z"/></clipPath></defs></svg><svg fill="none" viewBox="0 0 29 29" id="menu-help" xmlns="http://www.w3.org/2000/svg"><path d="M14.507 0c7.85 0 14.235 6.386 14.235 14.236 0 7.85-6.385 14.235-14.235 14.235-1.624 0-3.236-.28-4.766-.827l-7.694 1.349a.68.68 0 01-.739-.935l2.095-4.929A14.117 14.117 0 01.27 14.235C.271 6.386 6.657 0 14.507 0zM2.508 18.926a12.831 12.831 0 002.197 3.648.67.67 0 01.108.704l-1.77 4.163 6.644-1.16a.643.643 0 01.115-.006c.081 0 .161.013.238.04 1.429.533 2.941.806 4.467.807 7.104 0 12.88-5.776 12.88-12.88 0-7.104-5.776-12.88-12.88-12.88-7.105 0-12.88 5.776-12.88 12.88a12.835 12.835 0 00.881 4.684z" fill="#fff"/><path d="M8.724 12.29a2.21 2.21 0 110 4.42 2.21 2.21 0 010-4.42zm0 3.064a.854.854 0 100-1.708.854.854 0 000 1.708zM14.507 12.29a2.21 2.21 0 110 4.42 2.21 2.21 0 010-4.42zm0 3.064a.854.854 0 100-1.708.854.854 0 000 1.708zM20.289 12.29a2.21 2.21 0 110 4.42 2.21 2.21 0 010-4.42zm0 3.064a.854.854 0 100-1.709.854.854 0 000 1.709z" fill="#0094FF"/></svg><svg fill="none" viewBox="0 0 29 29" id="menu-house" xmlns="http://www.w3.org/2000/svg"><path d="M20.249 18.195a.58.58 0 00-.126-.632L17.48 14.92V9.57a.58.58 0 00-.58-.58h-2.026a.58.58 0 00-.58.58v2.164l-3.737-3.737a.58.58 0 00-.82 0L.17 17.563a.58.58 0 00.41.99h2.222v7.277c0 .32.26.58.58.58H16.91c.32 0 .58-.26.58-.58v-7.277h2.222a.58.58 0 00.536-.358zm-4.795-5.962h.866v1.449l-.867-.866v-.583zm.866-2.082v.922h-.867v-.922h.867zM11.817 25.25H8.475v-5.606h3.342v5.606zm5.094-7.857a.58.58 0 00-.58.58v7.277h-3.354v-6.186a.58.58 0 00-.58-.58H7.895a.58.58 0 00-.58.58v6.186H3.962v-7.277a.58.58 0 00-.58-.58H1.98l8.167-8.166 8.166 8.166h-1.402zM25.638 24.296l-.005-.017c-.293-1.196-1.338-2.067-2.546-2.118l-.121-.002a2.92 2.92 0 00-2.408 1.264 2.373 2.373 0 00-2.106 2.355h1.16a1.211 1.211 0 011.25-1.209.58.58 0 00.542-.308c.305-.58.907-.943 1.562-.942.027 0 .054 0 .076.002.681.028 1.276.521 1.457 1.204.02.519-.002 1.227-.002 1.234l1.159.038c.001-.033.026-.816 0-1.383a.57.57 0 00-.018-.118z" fill="#0094FF"/><path d="M25.532 3.016a.58.58 0 00-1.137 0l-3.457 16.962a.58.58 0 00.569.696h2.99v4.58H.843v1.16H27.31v-1.16h-1.654v-4.58h2.764a.58.58 0 00.568-.696L25.532 3.016zm-2.386 11.94l.222-1.091h3.19l.223 1.09h-3.635zm3.872 1.16l.222 1.091h-4.553l.223-1.09 4.108-.001zm-.695-3.411h-2.718l.222-1.09H26.1l.223 1.09zm-1.36-6.668l.9 4.417h-1.8l.9-4.417zm-2.746 13.477l.234-1.147h5.025l.234 1.147h-5.493z" fill="#fff"/></svg><svg fill="none" viewBox="0 0 25 25" id="menu-mc-icon" xmlns="http://www.w3.org/2000/svg"><circle cx="12.5" cy="12.5" r="12" stroke="#0094FF"/><path d="M12.537 9.545v6.364h-.645v-5.09l-2.5 4.281h-.318l-2.5-4.255v5.064h-.646V9.545h.555l2.763 4.719 2.737-4.719h.554zM17.374 15.964a3.5 3.5 0 01-1.709-.418 3.114 3.114 0 01-1.19-1.155 3.285 3.285 0 01-.428-1.664c0-.612.143-1.163.427-1.654.291-.497.691-.885 1.2-1.164a3.499 3.499 0 011.71-.418c.472 0 .909.079 1.309.236.4.158.739.388 1.018.691l-.427.428c-.497-.504-1.125-.755-1.882-.755-.503 0-.96.115-1.373.345-.412.23-.736.546-.973.946-.23.4-.345.848-.345 1.345s.115.946.345 1.346c.237.4.56.715.973.945.412.23.87.346 1.373.346.763 0 1.39-.255 1.881-.764l.428.427a2.793 2.793 0 01-1.027.7c-.4.158-.837.237-1.31.237z" fill="#0094FF"/></svg><svg fill="none" viewBox="0 0 29 30" id="menu-tie" xmlns="http://www.w3.org/2000/svg"><g clip-path="url(#gclip0)"><path d="M14.525 29.067a2.489 2.489 0 01-1.935-.919L9.05 23.814a2.51 2.51 0 01-.528-2.025l2.923-16.572a.725.725 0 111.428.253L9.95 22.042c-.054.303.027.613.221.85l3.542 4.335a1.05 1.05 0 001.626 0l3.541-4.335c.194-.237.275-.547.222-.85L16.178 5.47a.725.725 0 111.428-.253l2.923 16.572a2.507 2.507 0 01-.528 2.025l-3.541 4.334a2.49 2.49 0 01-1.935.919z" fill="#0094FF"/><path d="M16.892 6.07h-4.734a.725.725 0 01-.644-.392L9.13 1.061A.728.728 0 019.774 0h9.502a.725.725 0 01.644 1.061l-2.384 4.617a.725.725 0 01-.644.392zm-4.293-1.453h3.852l1.634-3.164h-7.119l1.633 3.164z" fill="#fff"/></g><defs><clipPath id="gclip0"><path fill="#fff" d="M0 0h29v29.067H0z"/></clipPath></defs></svg><svg fill="none" viewBox="0 0 29 30" id="menu-users" xmlns="http://www.w3.org/2000/svg"><g clip-path="url(#hclip0)"><path d="M9.328 2.604c-3.223 0-5.836 2.619-5.836 5.85 0 3.23 2.613 5.85 5.836 5.85 3.224 0 5.837-2.62 5.837-5.85-.005-3.23-2.615-5.846-5.837-5.85zm0 10.488a4.633 4.633 0 01-4.627-4.638 4.633 4.633 0 014.627-4.639 4.633 4.633 0 014.628 4.639 4.637 4.637 0 01-4.628 4.638zM26.438 6.625a2.068 2.068 0 00-.815.163 4.805 4.805 0 00-2.073-1.913 4.636 4.636 0 00-2.005-.448 4.73 4.73 0 00-4.72 4.71v.013a4.725 4.725 0 003.877 4.654 4.716 4.716 0 005.259-2.995 2.117 2.117 0 002.595-2.068 2.117 2.117 0 00-2.118-2.116zm-4.9-.987c.34.001.677.05 1.003.145-.26.6-.561 1.108-.918 1.52-.018.018-.03.036-.048.055-.544.623-1.203 1.035-1.958 1.223a4.02 4.02 0 01-1.553.079 3.518 3.518 0 013.474-3.022zm0 7.03a3.52 3.52 0 01-3.431-2.78c.174.019.35.027.525.025.407 0 .813-.046 1.209-.14a4.837 4.837 0 002.114-1.101c.181.236.384.454.604.654.69.63 1.456.975 2.266 1.03a3.487 3.487 0 01-3.287 2.312zm3.51-3.512c-1.135-.012-1.908-.896-2.253-1.393.328-.448.605-.932.828-1.441.513.38.913.893 1.16 1.484.013.06.035.117.066.17.132.379.2.778.2 1.18zm1.39.497a.762.762 0 01-.205-.025 4.75 4.75 0 00-.145-1.726.864.864 0 01.35-.066.908.908 0 010 1.817z" fill="#fff"/><path d="M21.538 15.69c-2.368 0-4.525 1.09-5.908 2.95a9.163 9.163 0 00-6.302-2.471c-2.52 0-4.863.98-6.603 2.76C.967 20.735 0 23.2 0 25.87c0 .334.27.605.604.606h17.448a.607.607 0 00.605-.606c0-.61-.053-1.22-.157-1.822h9.896A.607.607 0 0029 23.44c0-2.131-.773-4.1-2.181-5.54a7.314 7.314 0 00-5.28-2.21zM1.227 25.264c.132-2.12.96-4.045 2.362-5.486a8.072 8.072 0 0111.479 0c1.402 1.44 2.23 3.367 2.362 5.486H1.227zm16.989-2.428a9.55 9.55 0 00-1.746-3.295 6.194 6.194 0 019.485-.793c1.051 1.078 1.68 2.513 1.813 4.088h-9.552z" fill="#0094FF"/></g><defs><clipPath id="hclip0"><path fill="#fff" d="M0 0h29v29.067H0z"/></clipPath></defs></svg><svg fill="none" viewBox="0 0 29 30" id="menu-verified" xmlns="http://www.w3.org/2000/svg"><g clip-path="url(#iclip0)"><path d="M14.48 9.095c-3.559 0-6.444 2.891-6.444 6.459 0 3.567 2.886 6.46 6.445 6.46s6.444-2.893 6.444-6.46c-.006-3.565-2.888-6.453-6.444-6.46zm0 11.626a5.161 5.161 0 01-5.155-5.167 5.161 5.161 0 015.156-5.167 5.161 5.161 0 015.155 5.167 5.168 5.168 0 01-5.155 5.167z" fill="#0094FF"/><path d="M22.13 2.041h-2.835V.646A.647.647 0 0018.65 0h-8.339a.647.647 0 00-.644.646V2.04H6.83a3.227 3.227 0 00-3.222 3.23v20.566a3.227 3.227 0 003.222 3.23h15.3a3.227 3.227 0 003.221-3.23V5.271a3.227 3.227 0 00-3.222-3.23zm-11.174-.75h7.05v2.675h-7.05V1.292zm13.108 24.546a1.941 1.941 0 01-1.934 1.938H6.831a1.941 1.941 0 01-1.933-1.938V5.271A1.941 1.941 0 016.83 3.333h2.836v1.285a.647.647 0 00.644.646h8.34a.647.647 0 00.644-.646V3.333h2.835a1.941 1.941 0 011.934 1.938v20.566z" fill="#fff"/><path d="M17.123 13.416l-3.396 3.256-1.74-1.744a.641.641 0 00-.91 0 .645.645 0 000 .91l2.186 2.19c.12.122.286.19.457.187a.623.623 0 00.445-.18l3.854-3.689a.645.645 0 00.019-.91.655.655 0 00-.915-.02z" fill="#fff"/></g><defs><clipPath id="iclip0"><path fill="#fff" d="M0 0h29v29.067H0z"/></clipPath></defs></svg></svg>