<?xml version="1.0" encoding="utf-8"?><svg width="27" height="27" fill="none" xmlns="http://www.w3.org/2000/svg" viewBox="0 0 27 27"><path d="M6.268 6l4-4 4 4" stroke="#fff" stroke-linecap="round" stroke-linejoin="round"/><path d="M12.768 4.5l2.5-2.5 4 4" stroke="#fff" stroke-linecap="round" stroke-linejoin="round"/><path d="M25 19v3a3 3 0 01-3 3H4a3 3 0 01-3-3V9a3 3 0 013-3h18a3 3 0 013 3v3" stroke="#0094FF"/><path d="M20.5 12.5h5.995l.003.002a.01.01 0 01.002.003v5.99l-.002.003a.01.01 0 01-.003.002s0 0 0 0H20.5a3 3 0 110-6z" stroke="#0094FF" stroke-linejoin="round"/><circle cx="20.5" cy="15.5" r="1" stroke="#0094FF"/></svg>